C:\Users\Nicos\Documents\OpenSimProjects\SprintingProject\Study1\PredictiveResults\IC_pred_Sprinting_optimum_28-October-2023__10-02-52_p02_maxVel_01___HTD_Plus_6_GRF.mot
version=1
nRows=5
nColumns=127
inDegrees=yes
endheader
time	ground_force_vx	ground_force_vy	ground_force_vz	ground_force_px	ground_force_py	ground_force_pz	ground_torque_x	ground_torque_y	ground_torque_z	1_ground_force_vx	1_ground_force_vy	1_ground_force_vz	1_ground_force_px	1_ground_force_py	1_ground_force_pz	1_ground_torque_x	1_ground_torque_y	1_ground_torque_z	2_ground_force_vx	2_ground_force_vy	2_ground_force_vz	2_ground_force_px	2_ground_force_py	2_ground_force_pz	2_ground_torque_x	2_ground_torque_y	2_ground_torque_z	3_ground_force_vx	3_ground_force_vy	3_ground_force_vz	3_ground_force_px	3_ground_force_py	3_ground_force_pz	3_ground_torque_x	3_ground_torque_y	3_ground_torque_z	4_ground_force_vx	4_ground_force_vy	4_ground_force_vz	4_ground_force_px	4_ground_force_py	4_ground_force_pz	4_ground_torque_x	4_ground_torque_y	4_ground_torque_z	5_ground_force_vx	5_ground_force_vy	5_ground_force_vz	5_ground_force_px	5_ground_force_py	5_ground_force_pz	5_ground_torque_x	5_ground_torque_y	5_ground_torque_z	6_ground_force_vx	6_ground_force_vy	6_ground_force_vz	6_ground_force_px	6_ground_force_py	6_ground_force_pz	6_ground_torque_x	6_ground_torque_y	6_ground_torque_z	7_ground_force_vx	7_ground_force_vy	7_ground_force_vz	7_ground_force_px	7_ground_force_py	7_ground_force_pz	7_ground_torque_x	7_ground_torque_y	7_ground_torque_z	8_ground_force_vx	8_ground_force_vy	8_ground_force_vz	8_ground_force_px	8_ground_force_py	8_ground_force_pz	8_ground_torque_x	8_ground_torque_y	8_ground_torque_z	9_ground_force_vx	9_ground_force_vy	9_ground_force_vz	9_ground_force_px	9_ground_force_py	9_ground_force_pz	9_ground_torque_x	9_ground_torque_y	9_ground_torque_z	10_ground_force_vx	10_ground_force_vy	10_ground_force_vz	10_ground_force_px	10_ground_force_py	10_ground_force_pz	10_ground_torque_x	10_ground_torque_y	10_ground_torque_z	11_ground_force_vx	11_ground_force_vy	11_ground_force_vz	11_ground_force_px	11_ground_force_py	11_ground_force_pz	11_ground_torque_x	11_ground_torque_y	11_ground_torque_z	12_ground_force_vx	12_ground_force_vy	12_ground_force_vz	12_ground_force_px	12_ground_force_py	12_ground_force_pz	12_ground_torque_x	12_ground_torque_y	12_ground_torque_z	13_ground_force_vx	13_ground_force_vy	13_ground_force_vz	13_ground_force_px	13_ground_force_py	13_ground_force_pz	13_ground_torque_x	13_ground_torque_y	13_ground_torque_z
0.056000	-65.149839	19.988831	-12.012180	0.388791	-0.000975	0.371733	0.000000	0.000000	0.000000	-0.035335	0.011058	-0.005914	0.350007	0.008414	0.396440	0.000000	0.000000	0.000000	-0.000027	0.000009	-0.000003	0.328181	0.015100	0.395227	0.000000	0.000000	0.000000	-0.000316	0.000102	-0.000041	0.328661	0.012876	0.372945	0.000000	0.000000	0.000000	-0.000000	0.000000	-0.000000	0.250354	0.030164	0.433438	0.000000	0.000000	0.000000	-0.000000	0.000000	-0.000000	0.299352	0.019098	0.393011	0.000000	0.000000	0.000000	-0.000000	0.000000	-0.000000	0.184033	0.035090	0.384148	0.000000	0.000000	0.000000	-0.000000	0.000000	0.000000	-0.652501	0.319655	0.196805	0.000000	0.000000	0.000000	-0.000000	0.000000	0.000000	-0.619460	0.336377	0.180770	0.000000	0.000000	0.000000	-0.000000	0.000000	0.000000	-0.599794	0.345125	0.188724	0.000000	0.000000	0.000000	-0.000000	0.000000	0.000000	-0.606478	0.343875	0.210301	0.000000	0.000000	0.000000	-0.000000	0.000000	0.000000	-0.539534	0.378099	0.167637	0.000000	0.000000	0.000000	-0.000000	0.000000	0.000000	-0.582159	0.356562	0.196838	0.000000	0.000000	0.000000	-0.000000	0.000000	0.000000	-0.511619	0.402307	0.229295	0.000000	0.000000	0.000000
0.056655	-75.955997	23.491802	-14.015316	0.395037	-0.001214	0.372785	0.000000	0.000000	0.000000	-0.050486	0.015930	-0.008456	0.356008	0.008055	0.397287	0.000000	0.000000	0.000000	-0.000045	0.000015	-0.000006	0.333921	0.014621	0.395843	0.000000	0.000000	0.000000	-0.000552	0.000180	-0.000070	0.334505	0.012350	0.373583	0.000000	0.000000	0.000000	-0.000000	0.000000	-0.000000	0.255764	0.029505	0.433661	0.000000	0.000000	0.000000	-0.000001	0.000000	-0.000000	0.305046	0.018516	0.393496	0.000000	0.000000	0.000000	-0.000000	0.000000	-0.000000	0.189543	0.034097	0.384108	0.000000	0.000000	0.000000	-0.000000	0.000000	0.000000	-0.641427	0.319913	0.196062	0.000000	0.000000	0.000000	-0.000000	0.000000	0.000000	-0.608368	0.336658	0.180162	0.000000	0.000000	0.000000	-0.000000	0.000000	0.000000	-0.588757	0.345427	0.188211	0.000000	0.000000	0.000000	-0.000000	0.000000	0.000000	-0.595522	0.344170	0.209761	0.000000	0.000000	0.000000	-0.000000	0.000000	0.000000	-0.528486	0.378435	0.167374	0.000000	0.000000	0.000000	-0.000000	0.000000	0.000000	-0.571178	0.356872	0.196399	0.000000	0.000000	0.000000	-0.000000	0.000000	0.000000	-0.500863	0.402651	0.229150	0.000000	0.000000	0.000000
0.058725	-113.630764	36.616361	-20.013110	0.414245	-0.001922	0.375954	0.000000	0.000000	0.000000	-0.148094	0.048711	-0.023340	0.374460	0.006945	0.399826	0.000000	0.000000	0.000000	-0.000224	0.000077	-0.000026	0.351602	0.013124	0.397682	0.000000	0.000000	0.000000	-0.003042	0.001030	-0.000359	0.352529	0.010722	0.375489	0.000000	0.000000	0.000000	-0.000000	0.000000	-0.000000	0.272411	0.027395	0.434275	0.000000	0.000000	0.000000	-0.000005	0.000002	-0.000000	0.322593	0.016692	0.394925	0.000000	0.000000	0.000000	-0.000000	0.000000	-0.000000	0.206559	0.030962	0.383898	0.000000	0.000000	0.000000	-0.000000	0.000000	0.000000	-0.606377	0.320638	0.193740	0.000000	0.000000	0.000000	-0.000000	0.000000	0.000000	-0.573263	0.337454	0.178261	0.000000	0.000000	0.000000	-0.000000	0.000000	0.000000	-0.553824	0.346272	0.186578	0.000000	0.000000	0.000000	-0.000000	0.000000	0.000000	-0.560842	0.344996	0.208042	0.000000	0.000000	0.000000	-0.000000	0.000000	0.000000	-0.493549	0.379397	0.166514	0.000000	0.000000	0.000000	-0.000000	0.000000	0.000000	-0.536432	0.357747	0.194992	0.000000	0.000000	0.000000	-0.000000	0.000000	0.000000	-0.466861	0.403647	0.228649	0.000000	0.000000	0.000000
0.060225	-144.715881	48.364716	-24.162241	0.427594	-0.002437	0.378065	0.000000	0.000000	0.000000	-0.319836	0.109102	-0.047175	0.387289	0.006128	0.401503	0.000000	0.000000	0.000000	-0.000712	0.000253	-0.000077	0.363934	0.012028	0.398890	0.000000	0.000000	0.000000	-0.010165	0.003555	-0.001106	0.365114	0.009549	0.376742	0.000000	0.000000	0.000000	-0.000000	0.000000	-0.000000	0.284022	0.025828	0.434629	0.000000	0.000000	0.000000	-0.000019	0.000007	-0.000002	0.334843	0.015362	0.395846	0.000000	0.000000	0.000000	-0.000000	0.000000	-0.000000	0.218481	0.028701	0.383674	0.000000	0.000000	0.000000	-0.000000	0.000000	0.000000	-0.580923	0.321079	0.192085	0.000000	0.000000	0.000000	-0.000000	0.000000	0.000000	-0.547772	0.337945	0.176906	0.000000	0.000000	0.000000	-0.000000	0.000000	0.000000	-0.528456	0.346783	0.185386	0.000000	0.000000	0.000000	-0.000000	0.000000	0.000000	-0.535652	0.345494	0.206788	0.000000	0.000000	0.000000	-0.000000	0.000000	0.000000	-0.468208	0.380002	0.165866	0.000000	0.000000	0.000000	-0.000000	0.000000	0.000000	-0.511206	0.358283	0.193958	0.000000	0.000000	0.000000	-0.000000	0.000000	0.000000	-0.442209	0.404283	0.228244	0.000000	0.000000	0.000000
0.060880	-159.830128	54.140164	-26.321730	0.433260	-0.002672	0.378933	0.000000	0.000000	0.000000	-0.450643	0.155758	-0.065692	0.392738	0.005760	0.402190	0.000000	0.000000	0.000000	-0.001187	0.000428	-0.000124	0.369180	0.011539	0.399380	0.000000	0.000000	0.000000	-0.017172	0.006101	-0.001798	0.370470	0.009033	0.377251	0.000000	0.000000	0.000000	-0.000000	0.000000	-0.000000	0.288966	0.025131	0.434759	0.000000	0.000000	0.000000	-0.000036	0.000013	-0.000003	0.340058	0.014775	0.396216	0.000000	0.000000	0.000000	-0.000000	0.000000	-0.000000	0.223569	0.027718	0.383558	0.000000	0.000000	0.000000	-0.000000	0.000000	0.000000	-0.569796	0.321249	0.191372	0.000000	0.000000	0.000000	-0.000000	0.000000	0.000000	-0.536629	0.338136	0.176321	0.000000	0.000000	0.000000	-0.000000	0.000000	0.000000	-0.517366	0.346980	0.184864	0.000000	0.000000	0.000000	-0.000000	0.000000	0.000000	-0.524639	0.345684	0.206239	0.000000	0.000000	0.000000	-0.000000	0.000000	0.000000	-0.457139	0.380242	0.165576	0.000000	0.000000	0.000000	-0.000000	0.000000	0.000000	-0.500181	0.358492	0.193503	0.000000	0.000000	0.000000	-0.000000	0.000000	0.000000	-0.431443	0.404538	0.228055	0.000000	0.000000	0.000000
